<?xml version='1.0' encoding='UTF-8'?>
<!DOCTYPE svg PUBLIC "-//W3C//DTD SVG 1.0//EN" "http://www.w3.org/TR/2001/REC-SVG-20010904/DTD/svg10.dtd ">
<svg height="480" viewBox="0 0 640 480" width="640" xmlns:xlink="http://www.w3.org/1999/xlink" xmlns="http://www.w3.org/2000/svg" >
	<defs>
		<style type="text/css">
			<![CDATA[
				.data {
					fill: none;
					stroke: black;
					stroke-linecap: round;
					stroke-width: 1.5;
				}
				[id~="WildType06-01"] {
					fill: none;
					stroke: rgb(0,0,0);
				}
				[id~="WildType06-02"] {
					fill: none;
					stroke: rgb(23,0,85);
				}
				[id~="WildType06-03"] {
					fill: none;
					stroke: rgb(46,0,170);
				}
				[id~="WildType06-04"] {
					fill: none;
					stroke: rgb(70,0,255);
				}
				[id~="WildType06-05"] {
					fill: none;
					stroke: rgb(116,17,191);
				}
				[id~="WildType06-06"] {
					fill: none;
					stroke: rgb(162,35,127);
				}
				[id~="WildType06-07"] {
					fill: none;
					stroke: rgb(208,52,63);
				}
				[id~="WildType06-08"] {
					fill: none;
					stroke: rgb(255,70,0);
				}
				[id~="WildType06-09"] {
					fill: none;
					stroke: rgb(255,96,0);
				}
				[id~="WildType06-10"] {
					fill: none;
					stroke: rgb(255,123,0);
				}
				[id~="WildType06-11"] {
					fill: none;
					stroke: rgb(255,150,0);
				}
				line.axis {
					stroke: dimgrey;
					stroke-width: 0.75;
				}
				line.colorbar.tic {
					stroke: black;
					stroke-linecap: butt;
					stroke-width: 0.5;
				}
				line.scalebar {
					stroke: black;
					stroke-width: 0.75;
				}
				line.tic {
					stroke-linecap: round;
				}
				path.data.contour {
					fill: none;
					stroke-width: 2.5;
				}
				rect.colorbar {
					fill: none;
					stroke: black;
					stroke-width: 0.5;
				}
				rect.plot {
					fill: none;
					stroke: none;
				}
				text {
					font-family: Times;
				}
				text.axis {
					fill: dimgrey;
				}
				text.colorbar.label {
					fill: black;
				}
				text.label {
					font-weight: normal;
				}
				text.title {
					font-weight: bold;
				}
			]]>
		</style>
	</defs>
	<g id="contours" class="layer">
		<path d="M 131.34157 325.01627 C131.05394,324.75197 130.63982,324.61457 130.18909,324.57585 C129.73836,324.53712 129.251,324.59709 128.77731,324.7115 C128.06676,324.88311 127.38693,325.17722 126.75936,325.52124 C125.50422,326.20927 124.45811,327.09695 123.37356,328.01989 C121.20447,329.86576 118.88166,331.85266 116.07802,332.44414 C114.44257,332.78917 112.6435,332.65936 110.93285,332.63947 C109.46658,332.62242 108.06527,332.68613 106.73778,333.25952 C105.41028,333.83291 104.15661,334.91598 104.00282,336.15678 C103.84903,337.39757 104.79512,338.79607 105.91489,339.76191 C108.34103,341.85457 111.58246,341.91612 114.79724,341.5518 C117.76474,341.2155 120.70954,340.51633 123.34831,339.16335 C126.20698,337.69762 128.70648,335.46457 130.11292,332.78998 C130.76205,331.55556 131.17833,330.22708 131.54384,328.85549 C131.72659,328.1697 131.89665,327.47313 131.90825,326.78389 C131.91986,326.09464 131.77301,325.41271 131.34157,325.01627 z" id="WildType06-01" class="data contour"/>
		<path d="M 417.09372 243.25715 C416.63098,242.57255 415.62107,242.15416 414.58823,242.13049 C413.81359,242.11274 413.02606,242.31701 412.31445,242.59844 C410.89123,243.16129 409.77171,244.03277 408.78503,245.1568 C406.81167,247.40486 405.36966,250.66317 402.98415,252.45688 C400.39983,254.40007 396.7082,254.62438 393.46552,255.75505 C391.96891,256.27689 390.56792,256.9918 390.03839,258.25009 C389.50886,259.50839 389.85079,261.31006 390.79898,262.43554 C391.90521,263.74859 393.83664,264.14127 395.62326,264.05197 C397.15466,263.97542 398.57967,263.54478 400.00585,263.02111 C402.85822,261.97377 405.71528,260.55433 408.17789,258.65237 C410.84572,256.59193 413.05062,253.96519 414.68817,251.27951 C415.44397,250.03996 416.07891,248.78785 416.66488,247.34888 C417.25085,245.9099 417.78784,244.28404 417.09372,243.25715 z" id="WildType06-02" class="data contour"/>
		<path d="M 449.66199 222.73582 C449.13954,221.74454 448.22543,220.7619 447.17947,220.58125 C446.395,220.44576 445.53636,220.76139 444.78805,221.20278 C443.29143,222.08555 442.23615,223.47135 441.12298,224.85065 C438.89666,227.60927 436.4388,230.34192 433.55928,232.23908 C430.43979,234.29433 426.82545,235.36903 423.07801,236.30717 C421.34842,236.74016 419.59049,237.14406 418.61484,238.43362 C417.63919,239.72317 417.44583,241.89839 418.52858,242.96378 C419.25041,243.67405 420.5394,243.89106 421.74107,243.88166 C422.64233,243.87461 423.49448,243.74021 424.33641,243.61219 C426.02027,243.35614 427.66328,243.1256 429.31258,242.72527 C432.61118,241.9246 435.93493,240.44475 438.84883,238.62061 C442.00556,236.64446 444.68128,234.26426 447.06836,231.40269 C449.27182,228.76125 451.22934,225.70965 449.66199,222.73582" id="WildType06-03" class="data contour"/>
		<path d="M 336.68557 24.730081 C336.07651,24.041 334.83793,23.940234 333.67623,24.051037 C332.80496,24.134139 331.97693,24.336248 331.18618,24.598699 C329.60468,25.123601 328.17227,25.889869 326.70362,26.706197 C323.76632,28.338854 320.68403,30.171752 317.34686,30.684608 C313.7316,31.240203 309.81721,30.246582 306.18284,30.735282 C305.34414,30.848059 304.52035,31.039777 303.7233,31.453525 C302.92626,31.867273 302.15597,32.503051 301.81937,33.188492 C301.14618,34.559373 302.20778,36.1289 303.51704,37.287856 C306.35378,39.798928 310.35315,40.382594 314.09215,40.085517 C317.54353,39.811292 320.77306,38.786612 324.05265,37.745752 C327.60554,36.618154 331.2172,35.471568 333.70338,33.084586 C334.85084,31.982902 335.75856,30.616992 336.43957,29.164465 C336.78007,28.438201 337.0639,27.690283 337.15447,26.892455 C337.24504,26.094627 337.14236,25.246891 336.68557,24.730081 z" id="WildType06-04" class="data contour"/>
		<path d="M 283.95107 285.49478 C283.53273,284.57798 282.2678,283.84407 281.07507,283.61882 C280.18053,283.44989 279.32659,283.56707 278.42885,283.67618 C276.63338,283.89439 274.66273,284.08029 272.94532,284.69475 C269.5105,285.92366 267.08865,288.86681 265.0077,291.98776 C262.75334,295.3688 260.89907,298.9585 259.89082,302.82422 C258.96012,306.39257 258.75029,310.1961 260.8884,313.20792 C261.60111,314.21185 262.57469,315.12782 263.66755,315.6837 C264.48719,316.10062 265.37392,316.31498 266.02613,315.98205 C266.67833,315.64911 267.096,314.76887 267.32933,313.89025 C267.56265,313.01162 267.61163,312.13462 267.64625,311.23744 C267.78472,307.64876 267.6935,303.73742 269.17719,300.51231 C270.78452,297.01844 274.24018,294.32995 277.53337,292.53961 C279.05331,291.7133 280.53864,291.07831 281.91996,289.86748 C283.30128,288.65665 284.57858,286.86997 283.95107,285.49478" id="WildType06-05" class="data contour"/>
		<path d="M 212.44527 185.88654 C211.29019,184.24526 208.85743,183.77313 206.4866,183.60089 C204.45447,183.45326 202.46784,183.52596 200.63515,184.00261 C196.96976,184.95592 193.92014,187.52505 191.25152,190.34904 C188.3605,193.40837 185.91663,196.76683 184.30776,200.40121 C183.56521,202.07862 183.00052,203.81481 182.73004,205.70108 C182.45956,207.58736 182.48329,209.62373 183.63396,210.89992 C184.40107,211.75072 185.66904,212.26366 186.83932,212.04607 C187.71702,211.88287 188.53977,211.30875 189.19819,210.66088 C190.51503,209.36512 191.17457,207.77435 191.79279,206.06841 C193.02922,202.65654 194.10035,198.78404 196.53675,196.35366 C199.17618,193.72074 203.4179,192.7803 206.94686,191.87054 C208.57561,191.45064 210.05254,191.03729 211.43485,190.09804 C212.12601,189.62842 212.79351,189.02732 212.99709,188.2677 C213.20066,187.50808 212.9403,186.58994 212.44527,185.88654" id="WildType06-06" class="data contour"/>
		<path d="M 529.5045 408.12915 C528.65158,407.54332 527.29908,407.82004 526.17065,408.37607 C525.32432,408.7931 524.60403,409.36723 523.89231,409.94226 C522.46887,411.0923 521.0797,412.2459 519.87383,413.6311 C518.66797,415.0163 517.64541,416.6331 516.3107,417.95409 C514.97598,419.27508 513.32911,420.30025 511.56941,420.87615 C507.75672,422.12391 503.41435,421.26252 499.44676,422.60424 C498.53116,422.91387 497.63552,423.34083 496.90896,423.93031 C496.18239,424.5198 495.6249,425.27182 495.55289,426.06922 C495.48087,426.86663 495.89433,427.70941 496.49805,428.46272 C497.10177,429.21603 497.89576,429.87987 498.72213,430.39751 C502.30305,432.64062 506.49204,432.13845 510.35189,430.88962 C513.91483,429.73685 517.19731,427.94787 520.49451,426.07345 C524.06649,424.04281 527.65574,421.91189 529.26877,418.34597 C530.01324,416.70017 530.33675,414.74868 530.56561,412.97975 C530.68003,412.09528 530.7708,411.25645 530.63684,410.37476 C530.50288,409.49307 530.1442,408.56852 529.5045,408.12915 z" id="WildType06-07" class="data contour"/>
		<path d="M 385.94995 404.69157 C385.20276,403.8411 383.69248,403.3265 382.2426,403.28508 C381.1552,403.25402 380.10177,403.48913 379.17049,403.88021 C377.30793,404.66239 375.93397,406.0685 374.44195,407.47473 C371.45792,410.2872 368.00169,413.10017 364.12904,413.80294 C359.93367,414.56429 355.2496,412.84908 350.96987,413.79096 C348.9946,414.22568 347.10547,415.2264 346.09864,416.8824 C345.59523,417.7104 345.31239,418.70223 345.50697,419.58009 C345.70155,420.45796 346.37355,421.22186 347.15573,421.84563 C348.98083,423.3011 351.40583,423.99363 353.73237,424.04727 C355.72656,424.09326 357.64841,423.66985 359.59354,423.26107 C363.4838,422.44351 367.46717,421.68446 371.27419,420.46003 C375.39846,419.13357 379.31577,417.26092 382.24443,414.40445 C383.59612,413.08608 384.73722,411.55813 385.60587,409.77844 C386.47452,407.99874 387.07072,405.96729 385.94995,404.69157" id="WildType06-08" class="data contour"/>
		<path d="M 525.47599 241.03057 C524.42365,238.75379 521.74981,237.57129 519.07805,236.85987 C516.78797,236.25008 514.49941,235.98639 512.25042,236.03565 C507.75243,236.13418 503.4127,237.48452 499.02061,238.71704 C494.26251,240.05226 489.44295,241.24921 485.84727,244.143 C484.18772,245.47859 482.78888,247.17564 481.67667,249.20611 C480.56446,251.23657 479.73887,253.60045 480.66717,255.23263 C481.28604,256.32075 482.68441,257.08368 484.0948,257.01905 C485.15259,256.97057 486.21714,256.45659 487.18073,255.87581 C489.10792,254.71426 490.63128,253.28553 492.31461,251.9453 C495.68126,249.26484 499.68777,246.93837 503.88172,245.96484 C508.42516,244.91019 513.18859,245.44336 517.75517,246.12318 C519.86282,246.43694 521.92855,246.78193 523.70776,246.03207 C524.59737,245.65714 525.41535,245.00849 525.74775,244.09579 C526.08015,243.18309 525.92698,242.00633 525.47599,241.03057" id="WildType06-09" class="data contour"/>
		<path d="M 153.54818 208.93881 C152.74752,207.81345 150.84607,207.66722 149.30357,208.22906 C148.1467,208.65044 147.19173,209.47012 146.27452,210.31375 C144.4401,212.00101 142.75669,213.78408 140.78934,215.24258 C136.85463,218.15959 131.7842,219.77832 126.73001,220.17048 C121.25465,220.59533 115.79835,219.58066 110.29135,218.93258 C107.74965,218.63346 105.19716,218.41244 102.7316,219.43612 C101.49881,219.94797 100.28777,220.77099 99.845797,221.80442 C99.403828,222.83785 99.730938,224.08168 100.40775,225.02548 C101.98697,227.22768 105.47011,227.79637 108.63883,227.95783 C111.35488,228.09623 113.83992,227.93544 116.37019,227.75053 C121.43072,227.38071 126.67216,226.91442 131.9305,226.34888 C137.62703,225.73622 143.34342,225.00707 147.56587,221.65531 C149.5147,220.10834 151.1453,218.00271 152.40573,215.84167 C153.03595,214.76115 153.57362,213.66677 153.85181,212.42219 C154.12999,211.17761 154.14868,209.78284 153.54818,208.93881 z" id="WildType06-10" class="data contour"/>
		<path d="M 444.11405 33.166666 C443.21368,31.898742 441.25271,31.524049 439.70584,32.068917 C438.54569,32.477568 437.61846,33.403472 436.79964,34.393589 C435.16201,36.373822 433.958,38.610908 432.50957,40.686248 C429.61271,44.836928 425.73818,48.340624 421.55515,51.534513 C419.11504,53.397616 416.56995,55.155298 413.73272,56.078723 C411.30081,56.870231 408.65425,57.048816 405.96918,56.812836 C403.2841,56.576857 400.5605,55.926313 398.1432,56.909173 C396.93454,57.400603 395.80246,58.300385 395.5033,59.390908 C395.20415,60.48143 395.73791,61.762694 396.53832,62.763343 C398.40595,65.098191 401.72535,65.905248 404.88548,66.064966 C407.59416,66.201867 410.18582,65.863172 412.56158,64.994905 C417.3131,63.25837 421.20103,59.403544 425.64006,56.538104 C430.44901,53.433879 435.90473,51.490808 439.62582,47.313521 C441.34324,45.385542 442.69115,42.981636 443.66767,40.595232 C444.15592,39.402031 444.55133,38.213205 444.70968,36.892099 C444.86804,35.570994 444.78934,34.117609 444.11405,33.166666 z" id="WildType06-11" class="data contour"/>
	</g>
	<g id="scale bar" class="layer">
		<g id="scalebar lines">
			<line id="scalebar" class="scalebar" x1="30" x2="71.047538" y1="480" y2="480"/>
			<line id="scalebar left tic" class="scalebar tic" x1="30" x2="30" y1="478.5" y2="481.5"/>
			<line id="scalebar right tic" class="scalebar tic" x1="71.047538" x2="71.047538" y1="478.5" y2="481.5"/>
		</g>
		<text font-size="12" class="scalebar label" text-anchor="middle" x="50.523769" y="493.5">2.5 µm</text>
	</g>
</svg>
