<?xml version='1.0' encoding='UTF-8'?>
<!DOCTYPE svg PUBLIC "-//W3C//DTD SVG 1.0//EN" "http://www.w3.org/TR/2001/REC-SVG-20010904/DTD/svg10.dtd ">
<svg height="480" viewBox="0 0 640 480" width="640" xmlns:xlink="http://www.w3.org/1999/xlink" xmlns="http://www.w3.org/2000/svg" >
	<defs>
		<title>WT Model</title>
		<style type="text/css">
			<![CDATA[
				.data {
					fill: none;
					stroke: black;
					stroke-linecap: round;
					stroke-width: 1.5;
				}
				[id~="position--1"] {
					stroke: rgb(58,0,212);
				}
				[id~="position--2"] {
					stroke: rgb(0,0,0);
				}
				[id~="position-0"] {
					stroke: rgb(162,35,127);
				}
				[id~="position-1"] {
					stroke: rgb(255,83,0);
				}
				[id~="position-2"] {
					stroke: rgb(255,150,0);
				}
				line.axis {
					stroke: dimgrey;
					stroke-width: 0.75;
				}
				line.colorbar.tic {
					stroke: black;
					stroke-linecap: butt;
					stroke-width: 0.5;
				}
				line.scalebar {
					stroke: black;
					stroke-width: 0.75;
				}
				line.tic {
					stroke-linecap: round;
				}
				rect.colorbar {
					fill: none;
					stroke: black;
					stroke-width: 0.5;
				}
				rect.plot {
					fill: none;
					stroke: none;
				}
				text {
					font-family: Times;
				}
				text.axis {
					fill: dimgrey;
				}
				text.colorbar.label {
					fill: black;
				}
				text.label {
					font-weight: normal;
				}
				text.title {
					font-weight: bold;
				}
			]]>
		</style>
	</defs>
	<g id="Shape Mode 1" class="layer">
		<path d="M 300.9502 231.8374 C285.16004,205.69713 256.04857,194.7983 226.60239,189.48888 C199.42129,184.58787 171.95499,184.44944 144.26787,185.17799 C114.2735,185.96725 84.019986,187.77401 59.762104,203.2334 C48.566158,210.36851 38.647389,220.41186 31.352894,232.06471 C27.705646,237.89113 24.714467,244.11992 24.288495,250.36417 C23.862523,256.60842 26.00176,262.86813 30.347956,266.36545 C36.142886,271.02854 45.861301,270.78072 54.507775,267.76461 C60.992631,265.50253 66.87452,261.68328 72.583184,257.97263 C84.000512,250.55132 94.724941,243.5644 106.66732,237.82345 C130.55208,226.34155 159.30865,219.84355 185.61567,223.69321 C214.11494,227.86368 239.73941,244.17828 263.57663,258.95135 C269.07752,262.36052 274.48324,265.68759 280.58086,267.25624 C286.67848,268.82489 293.46799,268.63512 298.56367,265.72565 C303.65934,262.81618 307.06118,257.18702 307.29486,250.95042 C307.52855,244.71382 304.59408,237.86978 300.9502,231.8374 z" id="mode-1 position--2" class="data contour"/>
		<path d="M 282.75803 228.11847 C269.00462,205.91673 243.97789,196.02613 218.51274,191.15924 C195.00646,186.66672 171.12661,186.45475 147.18208,187.40254 C121.24217,188.42931 95.226352,190.81719 74.058703,203.89816 C64.289019,209.93554 55.552081,218.25073 49.159532,228.19184 C45.963258,233.16239 43.353081,238.53943 42.967854,244.00313 C42.582628,249.46684 44.422352,255.01723 47.70643,258.35456 C55.36928,266.14167 70.895835,261.87996 83.782209,256.3717 C94.827672,251.65034 103.93341,246.01316 114.20346,241.31072 C134.74356,231.90585 159.9409,226.23996 182.8424,229.52047 C207.65235,233.07435 229.76787,247.1278 251.65903,256.62672 C256.71084,258.81877 261.7507,260.76828 267.06217,261.25151 C272.37364,261.73473 277.95671,260.75168 282.00477,257.7654 C286.05283,254.77913 288.56588,249.78964 288.53564,244.40535 C288.50541,239.02105 285.9319,233.24195 282.75803,228.11847" id="mode-1 position--1" class="data contour"/>
		<path d="M 264.55495 224.4165 C253.05332,205.98398 231.93573,197.26333 210.39583,192.86228 C190.51286,188.79977 170.27005,188.41787 150.10682,189.5972 C128.26332,190.8748 106.51321,193.98469 88.304151,204.53702 C79.899971,209.40732 72.250101,215.863 67.10317,224.37653 C61.95624,232.89005 59.312251,243.46143 64.015814,249.79626 C67.151522,254.01948 73.552809,256.35979 80.107363,256.65177 C85.023278,256.87077 90.025406,255.93757 94.747127,254.67238 C104.19057,252.14199 112.51239,248.28359 121.57806,244.81531 C139.7094,237.87874 160.81616,232.50265 180.02078,235.21245 C200.82577,238.14807 219.39839,250.57338 240.01648,254.25483 C249.53253,255.95397 259.4843,255.7905 265.14597,249.90372 C267.9768,246.96032 269.73511,242.5861 269.5432,238.01356 C269.35129,233.44102 267.20917,228.67016 264.55495,224.4165" id="mode-1 position-0" class="data contour"/>
		<path d="M 246.24569 220.74316 C237.50161,206.11022 219.87872,198.45383 202.19544,194.53258 C185.87242,190.91297 169.49794,190.47597 153.10291,191.83738 C135.34162,193.31223 117.55622,196.89772 102.58177,205.21175 C95.670478,209.049 89.357973,213.8935 84.968327,220.56371 C80.578682,227.23392 78.111897,235.72984 81.156734,241.83601 C84.709044,248.95987 95.763286,252.83104 105.56315,253.0415 C113.96303,253.22189 121.44132,250.71279 129.18842,248.29278 C144.68261,243.45276 161.25201,238.9691 176.99872,241.06656 C194.05765,243.33882 210.15106,253.33476 228.10633,251.9812 C232.24985,251.66884 236.49253,250.75206 240.20922,249.04633 C243.92591,247.3406 247.11661,244.8459 248.88634,241.80947 C252.42581,235.73662 250.28142,227.49683 246.24569,220.74316" id="mode-1 position-1" class="data contour"/>
		<path d="M 228.27566 217.00397 C220.72405,206.07891 207.71473,199.65299 194.17572,196.24337 C181.67816,193.09603 168.72928,192.51879 155.98392,194.04957 C142.17644,195.70793 128.60782,199.84029 116.97646,205.9339 C111.60814,208.74633 106.65249,211.97655 102.85637,216.67907 C99.060253,221.38158 96.423671,227.55639 98.09537,233.84184 C99.209837,238.03214 102.23909,242.27161 106.25689,245.52487 C109.27023,247.96482 112.83962,249.85002 116.35005,251.03652 C123.37089,253.40951 130.15585,252.98769 136.69724,251.90766 C149.78002,249.74759 161.88855,244.95464 174.00288,246.6561 C181.06957,247.64863 188.13824,250.85106 195.8355,251.97864 C202.43316,252.94515 209.49265,252.38728 216.42505,249.27875 C219.89125,247.72448 223.32567,245.53255 226.10352,242.89993 C228.88137,240.26731 231.00264,237.19401 232.02969,234.14502 C234.08379,228.04703 231.76102,222.0463 228.27566,217.00397 z" id="mode-1 position-2" class="data contour"/>
		<text font-size="14" class="shapemode label" text-anchor="middle" x="165.71902" y="454.5">Shape Mode 1</text>
		<text font-size="12" class="shapemode label" text-anchor="middle" x="165.71902" y="467"> (88.2% of total variance)</text>
	</g>
	<g id="Shape Mode 2" class="layer">
		<path d="M 597.548 218.75852 C581.12265,204.68974 557.71866,203.79421 535.99928,203.33855 C515.95062,202.91795 497.33737,202.87213 478.09893,202.07099 C457.25729,201.20309 435.68193,199.44874 416.59385,206.38953 C407.78397,209.59297 399.50392,214.64863 392.65622,221.3528 C389.23237,224.70488 386.16661,228.46909 384.96976,232.48165 C383.7729,236.49421 384.44495,240.75512 386.76416,244.22168 C392.17565,252.3103 406.555,256.07409 418.99425,256.80419 C429.65646,257.43 438.89329,255.82697 448.4159,254.06633 C467.46112,250.54504 487.64941,246.39328 506.93904,248.62348 C527.83614,251.03954 547.67856,260.94555 572.11361,257.50208 C583.39133,255.91279 595.64736,251.47982 601.86628,243.54822 C604.97574,239.58242 606.57592,234.74197 605.6666,230.34765 C604.75729,225.95334 601.33846,222.00516 597.548,218.75852" id="mode-2 position--2" class="data contour"/>
		<path d="M 594.98622 224.08347 C581.20329,207.72822 558.80733,202.98178 537.14558,200.57404 C517.15011,198.35151 497.78024,198.12171 478.08837,198.29822 C456.7555,198.48944 435.04472,199.15751 416.41992,207.93946 C407.82387,211.99266 399.88518,217.77427 393.82066,225.32855 C390.7884,229.10569 388.22469,233.326 387.32888,237.62241 C386.43307,241.91882 387.20517,246.29133 389.54025,249.59259 C394.98876,257.29551 408.94681,259.16599 420.84508,258.24273 C431.0436,257.45137 439.72882,254.60745 448.97698,251.9296 C467.47331,246.57389 488.22143,241.88241 507.47202,244.38976 C528.32682,247.10604 547.4241,258.27095 570.04088,258.32571 C580.47939,258.35099 591.66762,256.0096 597.51341,249.16376 C600.43631,245.74084 602.0236,241.19181 601.45625,236.72104 C600.88889,232.25026 598.1669,227.85776 594.98622,224.08347" id="mode-2 position--1" class="data contour"/>
		<path d="M 592.49598 229.34952 C580.99436,210.91699 559.87676,202.19635 538.33687,197.7953 C518.45389,193.73279 498.21109,193.35089 478.04786,194.53021 C456.20436,195.80782 434.45424,198.91771 416.24519,209.47004 C407.84101,214.34034 400.19114,220.79602 395.04421,229.30955 C389.89728,237.82307 387.25329,248.39444 391.95685,254.72927 C395.09256,258.95249 401.49385,261.2928 408.0484,261.58479 C412.96431,261.80378 417.96644,260.87059 422.68816,259.6054 C432.13161,257.07501 440.45342,253.21661 449.5191,249.74833 C467.65044,242.81176 488.7572,237.43567 507.96181,240.14547 C528.76681,243.08109 547.33942,255.5064 567.95752,259.18785 C577.47357,260.88698 587.42533,260.72352 593.087,254.83673 C595.91784,251.89334 597.67615,247.51912 597.48424,242.94658 C597.29233,238.37404 595.1502,233.60318 592.49598,229.34952" id="mode-2 position-0" class="data contour"/>
		<path d="M 590.08458 234.55974 C580.6031,214.27241 560.88246,201.40846 539.53202,194.9863 C519.82391,189.05816 498.72708,188.61888 478.02489,190.79052 C455.59752,193.14312 433.6333,198.55992 416.13168,211.02653 C408.054,216.78036 400.92694,224.03592 396.31763,233.2692 C391.70833,242.50247 389.61679,253.71347 394.61508,260.15152 C396.28118,262.29753 398.73503,263.91322 401.54908,264.76103 C404.36313,265.60884 407.53738,265.68876 410.69063,265.27093 C415.42051,264.64419 420.10315,262.89751 424.53583,260.89894 C433.40117,256.90181 441.26663,251.89717 450.092,247.57778 C467.74273,238.939 489.23313,233.04126 508.44141,235.94546 C529.25039,239.09169 547.38105,252.56798 565.84457,260.04196 C574.36619,263.49149 582.95872,265.66242 588.59061,260.60193 C591.40656,258.07168 593.48234,253.73358 593.69886,249.02602 C593.91537,244.31846 592.27262,239.24144 590.08458,234.55974" id="mode-2 position-1" class="data contour"/>
		<path d="M 587.44945 239.74085 C580.62175,217.66318 561.94313,200.6037 540.68219,192.16411 C521.0567,184.37372 499.23089,183.92809 478.03073,187.07102 C455.06389,190.47587 432.83132,198.09231 415.98784,212.59248 C408.21393,219.28486 401.58799,227.4436 397.55977,237.27723 C393.53154,247.11085 392.10103,258.61937 397.36549,265.65565 C399.12031,268.00107 401.61901,269.84958 404.38976,270.27957 C407.16052,270.70956 410.20333,269.72102 413.21285,268.55835 C417.72713,266.81433 422.1665,264.67851 426.358,262.18423 C434.74099,257.19566 442.1325,250.77324 450.69822,245.45473 C467.82965,234.81769 489.65792,228.59627 508.89866,231.77169 C529.74279,235.21174 547.55016,249.68003 563.69284,260.83985 C571.1433,265.99054 578.23915,270.43646 584.28642,266.40828 C586.30217,265.06555 588.20142,262.78126 589.08637,259.8745 C589.52884,258.42112 589.71773,256.81213 589.7807,255.15854 C589.96959,250.19778 589.02508,244.83569 587.44945,239.74085 z" id="mode-2 position-2" class="data contour"/>
		<text font-size="14" class="shapemode label" text-anchor="middle" x="494.67554" y="454.5">Shape Mode 2</text>
		<text font-size="12" class="shapemode label" text-anchor="middle" x="494.67554" y="467"> (8.8% of total variance)</text>
	</g>
	<g id="scale bar" class="layer">
		<g id="scalebar lines">
			<line id="scalebar" class="scalebar" x1="30" x2="75.391415" y1="480" y2="480"/>
			<line id="scalebar left tic" class="scalebar tic" x1="30" x2="30" y1="478.5" y2="481.5"/>
			<line id="scalebar right tic" class="scalebar tic" x1="75.391415" x2="75.391415" y1="478.5" y2="481.5"/>
		</g>
		<text font-size="12" class="scalebar label" text-anchor="middle" x="52.695707" y="493.5">0.5 µm</text>
	</g>
	<g id="legend" class="layer">
		<g id="-2 s.d. row">
			<line id="position--2" class="data legend" x1="550" x2="600" y1="19" y2="19"/>
			<text font-size="12" class="legend label" text-anchor="start" x="603" y="22">-2 s.d.</text>
		</g>
		<g id="-1 s.d. row">
			<line id="position--1" class="data legend" x1="550" x2="600" y1="34" y2="34"/>
			<text font-size="12" class="legend label" text-anchor="start" x="603" y="37">-1 s.d.</text>
		</g>
		<g id="mean row">
			<line id="position-0" class="data legend" x1="550" x2="600" y1="49" y2="49"/>
			<text font-size="12" class="legend label" text-anchor="start" x="603" y="52">mean</text>
		</g>
		<g id="1 s.d. row">
			<line id="position-1" class="data legend" x1="550" x2="600" y1="64" y2="64"/>
			<text font-size="12" class="legend label" text-anchor="start" x="603" y="67">1 s.d.</text>
		</g>
		<g id="2 s.d. row">
			<line id="position-2" class="data legend" x1="550" x2="600" y1="79" y2="79"/>
			<text font-size="12" class="legend label" text-anchor="start" x="603" y="82">2 s.d.</text>
		</g>
	</g>
	<g id="title" class="layer">
		<text font-size="14" class="plot title" text-anchor="middle" x="320" y="14">WT Model</text>
	</g>
</svg>
