<?xml version='1.0' encoding='UTF-8'?>
<!DOCTYPE svg PUBLIC "-//W3C//DTD SVG 1.0//EN" "http://www.w3.org/TR/2001/REC-SVG-20010904/DTD/svg10.dtd ">
<svg height="480" viewBox="0 0 640 480" width="640" xmlns:xlink="http://www.w3.org/1999/xlink" xmlns="http://www.w3.org/2000/svg" >
	<defs>
		<style type="text/css">
			<![CDATA[
				.data {
					fill: none;
					stroke: black;
					stroke-linecap: round;
					stroke-width: 0.5;
				}
				[class~="data"][class~="WT_Model-normalized-positions"] {
					fill: rgb(67, 0, 246);
				}
				line.axis {
					stroke: dimgrey;
					stroke-width: 0.75;
				}
				line.colorbar.tic {
					stroke: black;
					stroke-linecap: butt;
					stroke-width: 0.5;
				}
				line.scalebar {
					stroke: black;
					stroke-width: 0.75;
				}
				line.tic {
					stroke-linecap: round;
				}
				rect.colorbar {
					fill: none;
					stroke: black;
					stroke-width: 0.5;
				}
				rect.plot {
					fill: none;
					stroke: none;
				}
				text {
					font-family: Times;
				}
				text.axis {
					fill: dimgrey;
				}
				text.colorbar.label {
					fill: black;
				}
				text.label {
					font-weight: normal;
				}
				text.title {
					font-weight: bold;
				}
			]]>
		</style>
	</defs>
	<g id="axes" class="layer">
		<g id="x-axis">
			<line id="x-axis" class="axis" x1="24" x2="606" y1="270.60813" y2="270.60813"/>
			<g id="x-axis tics">
				<line id="tic at -2.5" class="axis tic" x1="43.278334" x2="43.278334" y1="267.60813" y2="273.60813"/>
				<line id="tic at -2" class="axis tic" x1="114.1926" x2="114.1926" y1="267.60813" y2="273.60813"/>
				<line id="tic at -1.5" class="axis tic" x1="185.10686" x2="185.10686" y1="267.60813" y2="273.60813"/>
				<line id="tic at -1" class="axis tic" x1="256.02113" x2="256.02113" y1="267.60813" y2="273.60813"/>
				<line id="tic at -0.5" class="axis tic" x1="326.93539" x2="326.93539" y1="267.60813" y2="273.60813"/>
				<line id="tic at 0.5" class="axis tic" x1="468.76392" x2="468.76392" y1="267.60813" y2="273.60813"/>
				<line id="tic at 1" class="axis tic" x1="539.67818" x2="539.67818" y1="267.60813" y2="273.60813"/>
			</g>
			<g id="x-axis small tics">
				<line id="small tic at -2.25" class="axis tic small" x1="78.735466" x2="78.735466" y1="269.10813" y2="272.10813"/>
				<line id="small tic at -1.75" class="axis tic small" x1="149.64973" x2="149.64973" y1="269.10813" y2="272.10813"/>
				<line id="small tic at -1.25" class="axis tic small" x1="220.56399" x2="220.56399" y1="269.10813" y2="272.10813"/>
				<line id="small tic at -0.75" class="axis tic small" x1="291.47826" x2="291.47826" y1="269.10813" y2="272.10813"/>
				<line id="small tic at -0.25" class="axis tic small" x1="362.39252" x2="362.39252" y1="269.10813" y2="272.10813"/>
				<line id="small tic at 0.25" class="axis tic small" x1="433.30679" x2="433.30679" y1="269.10813" y2="272.10813"/>
				<line id="small tic at 0.25" class="axis tic small" x1="433.30679" x2="433.30679" y1="269.10813" y2="272.10813"/>
				<line id="small tic at 0.75" class="axis tic small" x1="504.22105" x2="504.22105" y1="269.10813" y2="272.10813"/>
				<line id="small tic at 1.25" class="axis tic small" x1="575.13531" x2="575.13531" y1="269.10813" y2="272.10813"/>
			</g>
		</g>
		<g id="x-axis labels">
			<text font-size="12" class="axis label" text-anchor="middle" x="43.278334" y="288.60813">-2.5</text>
			<text font-size="12" class="axis label" text-anchor="middle" x="114.1926" y="288.60813">-2</text>
			<text font-size="12" class="axis label" text-anchor="middle" x="185.10686" y="288.60813">-1.5</text>
			<text font-size="12" class="axis label" text-anchor="middle" x="256.02113" y="288.60813">-1</text>
			<text font-size="12" class="axis label" text-anchor="middle" x="326.93539" y="288.60813">-0.5</text>
			<text font-size="12" class="axis label" text-anchor="middle" x="468.76392" y="288.60813">0.5</text>
			<text font-size="12" class="axis label" text-anchor="middle" x="539.67818" y="288.60813">1</text>
		</g>
		<g id="y-axis">
			<line id="y-axis" class="axis" x1="397.84965" x2="397.84965" y1="432" y2="24"/>
			<g id="y-axis tics">
				<line id="tic at -2" class="axis tic" x1="400.84965" x2="394.84965" y1="398.28863" y2="398.28863"/>
				<line id="tic at -1" class="axis tic" x1="400.84965" x2="394.84965" y1="334.44838" y2="334.44838"/>
				<line id="tic at 1" class="axis tic" x1="400.84965" x2="394.84965" y1="206.76788" y2="206.76788"/>
				<line id="tic at 2" class="axis tic" x1="400.84965" x2="394.84965" y1="142.92762" y2="142.92762"/>
				<line id="tic at 3" class="axis tic" x1="400.84965" x2="394.84965" y1="79.087373" y2="79.087373"/>
			</g>
			<g id="y-axis small tics">
				<line id="small tic at -2.5" class="axis tic small" x1="399.34965" x2="396.34965" y1="430.20876" y2="430.20876"/>
				<line id="small tic at -1.5" class="axis tic small" x1="399.34965" x2="396.34965" y1="366.3685" y2="366.3685"/>
				<line id="small tic at -0.5" class="axis tic small" x1="399.34965" x2="396.34965" y1="302.52825" y2="302.52825"/>
				<line id="small tic at 0.5" class="axis tic small" x1="399.34965" x2="396.34965" y1="238.688" y2="238.688"/>
				<line id="small tic at 0.5" class="axis tic small" x1="399.34965" x2="396.34965" y1="238.688" y2="238.688"/>
				<line id="small tic at 1.5" class="axis tic small" x1="399.34965" x2="396.34965" y1="174.84775" y2="174.84775"/>
				<line id="small tic at 2.5" class="axis tic small" x1="399.34965" x2="396.34965" y1="111.0075" y2="111.0075"/>
				<line id="small tic at 3.5" class="axis tic small" x1="399.34965" x2="396.34965" y1="47.167247" y2="47.167247"/>
			</g>
		</g>
		<g id="y-axis labels">
			<text font-size="12" class="axis label" text-anchor="end" x="391.84965" y="402.78863">-2</text>
			<text font-size="12" class="axis label" text-anchor="end" x="391.84965" y="338.94838">-1</text>
			<text font-size="12" class="axis label" text-anchor="end" x="391.84965" y="211.26788">1</text>
			<text font-size="12" class="axis label" text-anchor="end" x="391.84965" y="147.42762">2</text>
			<text font-size="12" class="axis label" text-anchor="end" x="391.84965" y="83.587373">3</text>
		</g>
	</g>
	<g id="axis titles" class="layer">
		<text font-size="12" class="axis title" text-anchor="middle" x="606" y="264.60813">Mode 1 (normalized)</text>
		<text font-size="12" class="axis title" text-anchor="start" transform="rotate(90, 403.85, 24)" x="403.84965" y="24">Mode 2 (normalized)</text>
	</g>
	<g id="WT_Model-normalized-positions" class="layer">
		<path d="M 602.16601 280.68026 C602.00144,280.37226 601.68809,280.08899 601.3599,279.85143 C601.11376,279.67327 600.85927,279.52081 600.59423,279.38841 C600.06415,279.12361 599.49183,278.93903 598.91215,278.82757 C597.75278,278.60465 596.56392,278.67416 595.38167,278.72968 C594.10091,278.78983 592.82791,278.83355 591.72005,279.41598 C591.20873,279.6848 590.73259,280.06838 590.41256,280.54144 C590.25254,280.77797 590.13155,281.03687 590.11921,281.30448 C590.10686,281.57209 590.20316,281.8484 590.35723,282.08206 C590.71674,282.62725 591.39081,282.94019 592.05853,283.06463 C592.63086,283.1713 593.19853,283.13949 593.77372,283.04822 C594.34891,282.95695 594.93162,282.80621 595.51697,282.72665 C596.10232,282.6471 596.69032,282.63871 597.26651,282.68249 C597.93873,282.73356 598.59488,282.85564 599.23447,282.92196 C599.78269,282.9788 600.31874,282.99467 600.81714,282.86379 C601.31554,282.73291 601.77628,282.45527 602.05061,282.05761 C602.32495,281.65995 602.41286,281.14227 602.16601,280.68026 z" id="WildType00-1" class="data contour WT_Model-normalized-positions"/>
		<path d="M 582.60997 254.01578 C582.30411,253.46123 581.90305,252.91742 581.34257,252.50989 C580.86216,252.16058 580.26462,251.9114 579.65747,251.7691 C578.44317,251.48452 577.19039,251.6275 575.98232,251.80896 C575.2776,251.91482 574.58811,252.03377 573.89677,252.1712 C573.3042,252.28899 572.71028,252.42036 572.19149,252.68292 C571.6727,252.94548 571.22904,253.33923 570.97978,253.85988 C570.73051,254.38053 570.67564,255.02809 570.88232,255.56514 C571.0201,255.92318 571.27413,256.23209 571.61954,256.36154 C571.87859,256.45862 572.18904,256.45476 572.48845,256.42606 C573.08727,256.36866 573.6419,256.21196 574.21342,256.04446 C574.78494,255.87697 575.37333,255.69869 575.9714,255.63309 C576.56947,255.56749 577.17721,255.61457 577.7761,255.71376 C578.47479,255.82948 579.16143,256.01612 579.83853,256.14811 C580.41889,256.26125 580.99224,256.33424 581.59081,256.33146 C581.89009,256.33007 582.19568,256.30974 582.44344,256.19251 C582.6912,256.07529 582.88115,255.86117 582.95898,255.60172 C583.03681,255.34227 583.00253,255.0375 582.92859,254.76529 C582.85465,254.49309 582.74105,254.25345 582.60997,254.01578" id="WildType00-2" class="data contour WT_Model-normalized-positions"/>
		<path d="M 481.82308 273.47845 C481.3464,272.78217 480.72642,272.2737 480.0249,271.87433 C479.42359,271.53202 478.76238,271.26988 478.07513,271.14707 C477.38788,271.02427 476.6746,271.04081 475.96642,271.03902 C475.25824,271.03722 474.55515,271.01708 473.85064,271.0465 C472.32419,271.11024 470.79103,271.4066 469.44003,272.07054 C469.12826,272.22376 468.82619,272.39655 468.54156,272.59529 C468.25694,272.79403 467.98975,273.01871 467.77824,273.29242 C467.56673,273.56613 467.41088,273.88886 467.36602,274.23094 C467.32116,274.57302 467.38729,274.93444 467.56225,275.2214 C467.79553,275.60401 468.22228,275.85423 468.67456,275.95395 C469.01377,276.02874 469.36735,276.01887 469.71272,275.97828 C470.40345,275.8971 471.06135,275.69303 471.71164,275.4425 C472.36193,275.19198 473.0046,274.89499 473.67701,274.73054 C474.34942,274.56609 475.05157,274.53418 475.72336,274.64145 C476.50711,274.7666 477.24953,275.08119 477.99746,275.2696 C478.63855,275.4311 479.28369,275.4999 479.91631,275.5139 C480.23262,275.5209 480.5458,275.51419 480.87159,275.47134 C481.19737,275.42848 481.53577,275.34947 481.78982,275.172 C482.04387,274.99453 482.21359,274.71859 482.20946,274.41417 C482.20534,274.10975 482.02737,273.77685 481.82308,273.47845" id="WildType00-3" class="data contour WT_Model-normalized-positions"/>
		<path d="M 447.83525 244.3281 C447.50958,243.58112 446.91308,242.88282 446.18926,242.40835 C445.56884,242.00166 444.85488,241.75941 444.12357,241.59084 C442.66094,241.25369 441.12892,241.21123 439.63022,241.38509 C438.00663,241.57343 436.42214,242.01564 435.01742,242.76174 C434.69325,242.93392 434.37866,243.12228 434.08451,243.33835 C433.79037,243.55441 433.51667,243.79819 433.33038,244.09575 C433.14409,244.39331 433.04521,244.74466 433.03594,245.11071 C433.02667,245.47675 433.107,245.8575 433.2902,246.16096 C433.53446,246.56558 433.96158,246.83279 434.42218,246.89606 C434.76763,246.94352 435.1319,246.87625 435.48783,246.78825 C436.19968,246.61225 436.87813,246.35331 437.55026,246.096 C438.22239,245.8387 438.8882,245.58303 439.6034,245.37761 C440.3186,245.17218 441.08318,245.01701 441.79517,245.07548 C443.33781,245.20218 444.63355,246.33188 446.0795,246.67124 C446.41318,246.74956 446.75486,246.78578 447.08478,246.72503 C447.41471,246.66427 447.73288,246.50653 447.90921,246.25392 C448.08553,246.00132 448.12001,245.65385 448.09234,245.31558 C448.06466,244.97731 447.97483,244.64823 447.83525,244.3281" id="WildType00-4" class="data contour WT_Model-normalized-positions"/>
		<path d="M 562.49413 279.58942 C561.79563,278.47622 560.51485,277.92873 559.19352,277.68193 C557.97382,277.45411 556.71958,277.48249 555.45513,277.56142 C554.08531,277.64693 552.70353,277.79177 551.62689,278.42073 C551.12999,278.71102 550.69808,279.10444 550.39558,279.58009 C550.09308,280.05574 549.91998,280.61361 549.97044,281.15174 C549.98726,281.33111 550.02892,281.50829 550.1458,281.64932 C550.26269,281.79034 550.4548,281.89522 550.6561,281.95879 C550.95804,282.05414 551.28064,282.05656 551.59686,282.0418 C552.2293,282.01229 552.83622,281.91406 553.45217,281.81109 C554.68406,281.60516 555.95202,281.38029 557.19255,281.39836 C558.53645,281.41794 559.84815,281.72264 561.13455,281.81553 C561.43141,281.83697 561.72692,281.84712 562.01113,281.75187 C562.29534,281.65662 562.56824,281.45597 562.71712,281.21648 C563.01487,280.7375 562.81652,280.10321 562.49413,279.58942 z" id="WildType01-1" class="data contour WT_Model-normalized-positions"/>
		<path d="M 517.22562 226.2556 C516.71578,225.6207 516.13132,225.16623 515.48522,224.73035 C514.93142,224.35674 514.33234,223.99678 513.6995,223.74478 C512.43382,223.24079 511.0331,223.16861 509.66555,223.32319 C508.18403,223.49064 506.74142,223.92422 505.56345,224.73384 C505.01976,225.10752 504.53245,225.5613 504.21955,226.13772 C503.90665,226.71414 503.76816,227.4132 503.95877,228.03241 C504.02231,228.23881 504.12241,228.43634 504.27709,228.57505 C504.43177,228.71376 504.64103,228.79364 504.85586,228.82125 C505.1781,228.86266 505.51289,228.78646 505.83447,228.69528 C506.47762,228.51292 507.06792,228.27065 507.66132,227.97389 C508.25471,227.67714 508.8512,227.3259 509.49109,227.15301 C510.13099,226.98012 510.81429,226.98558 511.45066,227.14444 C512.1931,227.32976 512.87166,227.72387 513.58445,227.96198 C514.19542,228.16608 514.83154,228.25558 515.4452,228.25497 C515.75202,228.25466 516.05324,228.23183 516.36511,228.18622 C516.67698,228.1406 516.99952,228.07221 517.2494,227.89374 C517.49928,227.71526 517.67651,227.42671 517.66272,227.12982 C517.64893,226.83292 517.44413,226.52769 517.22562,226.2556 z" id="WildType01-2" class="data contour WT_Model-normalized-positions"/>
		<path d="M 512.78695 237.03867 C512.05148,235.7627 510.65146,235.1302 509.2143,234.7532 C507.8877,234.4052 506.52944,234.2749 505.16272,234.33099 C504.36547,234.36371 503.56533,234.45985 502.83771,234.74371 C502.21403,234.98701 501.64363,235.36822 501.12882,235.77824 C500.61401,236.18826 500.15479,236.62707 499.74291,237.16517 C499.53697,237.43421 499.34287,237.72808 499.26893,238.03384 C499.19499,238.3396 499.24121,238.65726 499.40985,238.88745 C499.63471,239.19436 500.07722,239.34577 500.50084,239.4149 C500.81856,239.46675 501.12565,239.47231 501.43461,239.45028 C502.05254,239.40622 502.67796,239.25178 503.27882,239.01507 C503.87967,238.77837 504.45596,238.4594 505.07976,238.21539 C505.39165,238.09339 505.71542,237.99013 506.04758,237.95672 C506.37973,237.92331 506.72026,237.95976 507.0494,238.03284 C508.47565,238.34952 509.68786,239.35415 511.15689,239.52918 C511.4959,239.56957 511.84859,239.56578 512.1725,239.47584 C512.49641,239.3859 512.79155,239.20981 512.96223,238.9479 C513.13291,238.686 513.17913,238.33829 513.13507,238.00007 C513.09101,237.66185 512.95668,237.33312 512.78695,237.03867 z" id="WildType01-3" class="data contour WT_Model-normalized-positions"/>
		<path d="M 487.47326 286.16879 C486.70929,284.91122 485.22774,284.33997 483.72934,284.09996 C482.34621,283.87842 480.94872,283.93912 479.53411,283.98648 C478.00161,284.03778 476.44903,284.07343 475.27504,284.842 C474.7332,285.19673 474.272,285.70759 473.94729,286.23437 C473.78494,286.49776 473.6567,286.76512 473.56323,287.06689 C473.46976,287.36865 473.41104,287.7048 473.51384,287.98442 C473.58237,288.17083 473.72268,288.3321 473.91159,288.44276 C474.1005,288.55342 474.338,288.61347 474.57802,288.64009 C474.93804,288.68003 475.3037,288.64479 475.65845,288.60134 C476.36793,288.51445 477.0337,288.39477 477.71905,288.24775 C479.08976,287.9537 480.53877,287.55029 481.89951,287.70565 C483.37365,287.87395 484.74419,288.69804 486.18236,288.86971 C486.51424,288.90932 486.84973,288.91419 487.1471,288.78287 C487.44447,288.65154 487.70372,288.38402 487.82714,288.08293 C487.95056,287.78184 487.93815,287.44718 487.8629,287.11647 C487.78765,286.78576 487.64957,286.459 487.47326,286.16879 z" id="WildType01-4" class="data contour WT_Model-normalized-positions"/>
		<path d="M 565.10528 238.49461 C564.68266,237.96805 564.24523,237.57131 563.69566,237.16321 C563.22459,236.81341 562.67114,236.45527 562.08012,236.1874 C560.89807,235.65166 559.56574,235.477 558.30002,235.6594 C556.92882,235.857 555.63579,236.47365 554.53374,237.2393 C554.0251,237.59268 553.55714,237.97779 553.18183,238.46348 C552.99418,238.70632 552.82968,238.97431 552.76837,239.27297 C552.70705,239.57162 552.74892,239.90096 552.87658,240.16753 C553.17448,240.78952 553.93953,241.06978 554.65153,241.0599 C555.26182,241.05142 555.83314,240.82978 556.41071,240.60496 C556.98827,240.38015 557.57208,240.15216 558.18161,240.04551 C558.79115,239.93885 559.42641,239.95354 560.04028,240.04894 C561.37035,240.25564 562.60004,240.84126 563.91935,240.75704 C564.52827,240.71816 565.15627,240.53661 565.43347,240.06303 C565.52587,239.90517 565.57929,239.71486 565.57894,239.52548 C565.57876,239.43079 565.56514,239.33633 565.54006,239.2447 C565.46481,238.96979 565.28641,238.72028 565.10528,238.49461 z" id="WildType02-1" class="data contour WT_Model-normalized-positions"/>
		<path d="M 517.62233 321.47559 C517.17003,320.84788 516.39126,320.62291 515.63333,320.41117 C514.98368,320.22968 514.34933,320.05791 513.69818,319.92499 C512.39588,319.65913 511.02634,319.54862 509.68169,319.64682 C508.225,319.75321 506.79752,320.10454 505.46353,320.60424 C504.84785,320.83486 504.25208,321.0971 503.8048,321.57762 C503.58117,321.81787 503.39466,322.11271 503.37131,322.42418 C503.34797,322.73565 503.48779,323.06376 503.68545,323.32432 C504.14667,323.93228 504.9228,324.17241 505.68334,324.22303 C506.33523,324.26642 506.97565,324.17057 507.62606,324.05889 C508.92688,323.83553 510.26763,323.54885 511.56327,323.75576 C512.31906,323.87645 513.0595,324.1651 513.80576,324.25998 C514.44541,324.34131 515.08933,324.28027 515.67458,324.07849 C516.25984,323.87672 516.78641,323.53421 517.21509,323.09966 C517.42943,322.88239 517.61929,322.64211 517.72971,322.3591 C517.80333,322.17043 517.84164,321.96276 517.77714,321.76302 C517.7449,321.66315 517.68694,321.56526 517.62233,321.47559 z" id="WildType02-2" class="data contour WT_Model-normalized-positions"/>
		<path d="M 442.14636 316.96604 C441.56395,316.33647 440.8432,315.9155 440.06485,315.58195 C439.39769,315.29604 438.68821,315.07436 437.96487,314.96887 C436.51819,314.75787 435.01607,315.01159 433.53491,314.961 C432.6709,314.93149 431.81403,314.79842 430.97088,314.89474 C430.24818,314.9773 429.53556,315.2284 428.92136,315.5882 C428.30715,315.948 427.79135,316.41652 427.3286,316.97081 C427.09723,317.24796 426.87911,317.54655 426.78464,317.88349 C426.69017,318.22043 426.71934,318.59571 426.90474,318.86717 C427.15194,319.22911 427.67687,319.40648 428.16674,319.49252 C428.53415,319.55705 428.88183,319.57021 429.23598,319.56579 C429.94427,319.55695 430.6784,319.4778 431.3871,319.29102 C432.0958,319.10425 432.77908,318.80987 433.49326,318.63144 C434.20744,318.45301 434.95251,318.39054 435.67889,318.4627 C437.2527,318.61903 438.73872,319.40735 440.28417,319.42014 C440.64081,319.42309 441.00061,319.38475 441.35489,319.29967 C441.70917,319.2146 442.05792,319.0828 442.30525,318.83375 C442.55257,318.5847 442.69846,318.21841 442.65931,317.88119 C442.62016,317.54398 442.39597,317.23585 442.14636,316.96604" id="WildType02-3" class="data contour WT_Model-normalized-positions"/>
		<path d="M 526.97096 262.83594 C526.13752,261.77562 524.8974,260.97857 523.525,260.64953 C522.89158,260.49767 522.22998,260.44549 521.57223,260.44804 C520.91449,260.45058 520.26061,260.50784 519.60079,260.56307 C518.17117,260.68273 516.71368,260.79286 515.55087,261.49697 C515.01419,261.82194 514.54028,262.27344 514.13605,262.74727 C513.93394,262.98419 513.74925,263.22669 513.66813,263.51881 C513.58701,263.81092 513.60946,264.15265 513.7703,264.40306 C513.98475,264.73694 514.44523,264.90849 514.87653,265.00404 C515.2,265.0757 515.50707,265.10461 515.82255,265.11249 C516.4535,265.12826 517.11812,265.0599 517.74541,264.87574 C518.37269,264.69159 518.96265,264.39163 519.58989,264.19302 C520.21714,263.99442 520.88167,263.89716 521.52815,263.95388 C522.28238,264.02006 523.01205,264.29582 523.7235,264.5275 C524.33331,264.72608 524.92975,264.89228 525.55503,264.98703 C525.86767,265.03441 526.18753,265.06392 526.49735,265.00668 C526.80717,264.94944 527.10696,264.80544 527.27317,264.55621 C527.43938,264.30698 527.47201,263.95251 527.40299,263.64592 C527.33397,263.33933 527.16329,263.08062 526.97096,262.83594 z" id="WildType03-1" class="data contour WT_Model-normalized-positions"/>
		<path d="M 507.44355 272.01467 C507.0109,271.38776 506.3755,270.95962 505.666,270.68957 C505.05785,270.45809 504.39524,270.34275 503.72962,270.23127 C502.39837,270.00832 501.05501,269.80081 499.67893,269.79348 C498.18818,269.78554 496.65903,270.01254 495.47625,270.79793 C494.93035,271.16041 494.45823,271.64185 494.0866,272.18378 C493.90079,272.45475 493.74009,272.74084 493.65765,273.0641 C493.5752,273.38737 493.57099,273.74781 493.7282,273.97718 C493.93782,274.283 494.43439,274.35581 494.89013,274.34356 C495.23194,274.33437 495.55078,274.27733 495.8676,274.21595 C496.50124,274.0932 497.1268,273.95308 497.7671,273.8103 C499.0477,273.52475 500.38724,273.22858 501.6721,273.39105 C503.06404,273.56705 504.3918,274.28133 505.76413,274.32336 C506.08082,274.33306 506.39988,274.30696 506.70782,274.21537 C507.01576,274.12377 507.31257,273.96667 507.51364,273.73548 C507.7147,273.50429 507.82002,273.19901 507.79858,272.89377 C507.77715,272.58853 507.62897,272.28335 507.44355,272.01467 z" id="WildType03-2" class="data contour WT_Model-normalized-positions"/>
		<path d="M 558.71644 326.96516 C558.28503,326.39592 557.63552,326.0758 556.95305,325.8124 C556.36809,325.58663 555.7589,325.40254 555.14072,325.31395 C553.90434,325.13676 552.63193,325.34156 551.37855,325.47498 C550.02072,325.61952 548.68522,325.68029 547.51226,326.15276 C546.97089,326.37082 546.46415,326.67658 546.02578,327.06219 C545.80659,327.255 545.6045,327.46777 545.52788,327.74005 C545.47679,327.92157 545.48148,328.12953 545.57296,328.30105 C545.6187,328.38681 545.68614,328.46346 545.75777,328.53496 C546.25916,329.03542 546.96577,329.2834 547.68032,329.42952 C548.29279,329.55476 548.91109,329.60517 549.53406,329.59924 C550.77999,329.58738 552.04456,329.35016 553.30608,329.44306 C554.67273,329.54372 556.0358,330.03182 557.29858,329.66263 C557.8814,329.49224 558.44287,329.13923 558.78582,328.63017 C558.9573,328.37565 559.07415,328.08211 559.06015,327.79048 C559.04616,327.49885 558.90133,327.20913 558.71644,326.96516 z" id="WildType03-3" class="data contour WT_Model-normalized-positions"/>
		<path d="M 518.99408 265.26511 C518.10726,264.17907 516.83755,263.3573 515.43974,263.02989 C514.14944,262.72767 512.74999,262.84667 511.38612,262.88342 C510.59053,262.90486 509.80706,262.89832 509.06228,263.10493 C508.42389,263.28203 507.81394,263.61575 507.29251,264.006 C506.77109,264.39625 506.33819,264.84304 505.94866,265.36968 C505.7539,265.633 505.56998,265.91628 505.49738,266.22608 C505.42478,266.53588 505.46349,266.87221 505.63547,267.10355 C505.86477,267.412 506.33098,267.53383 506.76358,267.55524 C507.08804,267.5713 507.39359,267.53087 507.69987,267.48027 C508.31241,267.37907 508.92782,267.23718 509.55425,267.07872 C510.18067,266.92027 510.8181,266.74526 511.46238,266.69031 C512.10666,266.63537 512.75779,266.70048 513.39559,266.83721 C514.77749,267.13346 516.09685,267.76588 517.46651,267.64665 C517.78259,267.61913 518.10134,267.55159 518.41112,267.4464 C518.72089,267.34121 519.02169,267.19837 519.21289,266.95856 C519.40408,266.71874 519.48567,266.38194 519.43433,266.08119 C519.38299,265.78044 519.19873,265.51574 518.99408,265.26511 z" id="WildType03-4" class="data contour WT_Model-normalized-positions"/>
		<path d="M 387.48473 245.88862 C386.97702,245.09322 386.1766,244.598 385.34531,244.14096 C384.63277,243.74922 383.89753,243.38553 383.13472,243.14415 C381.60909,242.6614 379.97313,242.66788 378.366,242.83833 C376.62494,243.02298 374.91773,243.40006 373.42615,244.21611 C372.73773,244.59275 372.09524,245.06289 371.718,245.75501 C371.34076,246.44712 371.22876,247.3612 371.63024,247.9965 C371.76406,248.20827 371.95494,248.38906 372.18569,248.4748 C372.41643,248.56054 372.68704,248.55122 372.94903,248.51116 C373.34202,248.45107 373.71561,248.3218 374.08122,248.18009 C374.81245,247.89669 375.5118,247.56354 376.24079,247.27413 C377.69877,246.69533 379.27533,246.29152 380.82306,246.4466 C381.72589,246.53707 382.61891,246.81772 383.41945,247.18939 C384.10563,247.50796 384.72386,247.8934 385.41346,248.20327 C385.75825,248.35821 386.12089,248.49426 386.47246,248.47204 C386.82403,248.44982 387.16452,248.26935 387.42227,248.00122 C387.68001,247.73309 387.85499,247.37731 387.86057,247.00142 C387.86615,246.62552 387.70232,246.2295 387.48473,245.88862 z" id="WildType03-5" class="data contour WT_Model-normalized-positions"/>
		<path d="M 322.27828 301.7924 C321.71898,300.98655 320.87312,300.48781 319.95935,300.12697 C319.17611,299.81768 318.34299,299.60971 317.4951,299.4593 C315.79932,299.15849 314.0445,299.08793 312.31005,299.11119 C311.29828,299.12476 310.29344,299.17025 309.34583,299.41616 C308.53358,299.62693 307.76338,299.98494 307.07784,300.42299 C306.39229,300.86105 305.79141,301.37914 305.23836,301.96429 C304.96183,302.25686 304.69725,302.5662 304.56746,302.95097 C304.48093,303.20748 304.4543,303.49752 304.598,303.70637 C304.66985,303.8108 304.78429,303.89493 304.90385,303.96728 C305.74074,304.47374 306.82864,304.40305 307.8085,304.1717 C308.64838,303.9734 309.40889,303.65706 310.20956,303.36186 C311.81092,302.77145 313.57294,302.26557 315.21627,302.62269 C316.17488,302.83101 317.0931,303.33299 317.98946,303.73692 C318.75777,304.08314 319.51001,304.35732 320.31695,304.53127 C320.72042,304.61824 321.13756,304.68016 321.55613,304.64363 C321.83518,304.61927 322.11486,304.55116 322.32907,304.38551 C322.43618,304.30269 322.52691,304.19548 322.59829,304.08177 C323.02653,303.39951 322.75767,302.48314 322.27828,301.7924 z" id="WildType03-6" class="data contour WT_Model-normalized-positions"/>
		<path d="M 396.50218 286.57808 C395.39404,285.27595 393.74171,284.65026 392.08092,284.30788 C390.54788,283.99183 389.00764,283.91718 387.45924,283.99659 C385.7818,284.08262 384.0948,284.34946 382.73471,285.2085 C382.10697,285.60498 381.54888,286.12761 381.11385,286.69747 C380.89634,286.9824 380.7096,287.27914 380.55465,287.61734 C380.39971,287.95554 380.27656,288.33521 380.3803,288.66883 C380.44946,288.89124 380.61945,289.09318 380.83568,289.21926 C381.05191,289.34535 381.31438,289.39556 381.58047,289.41415 C381.97962,289.44203 382.38693,289.39873 382.76737,289.30492 C383.52824,289.1173 384.18162,288.72766 384.89518,288.39794 C386.3223,287.73849 387.99015,287.31875 389.53878,287.55439 C391.21646,287.80966 392.75423,288.83409 394.44793,289.09892 C395.22963,289.22115 396.04456,289.18157 396.63535,288.6484 C396.83228,288.47067 397.0043,288.23811 397.05496,287.98401 C397.08029,287.85697 397.07527,287.72454 397.05262,287.59718 C396.98465,287.21509 396.7579,286.87857 396.50218,286.57808" id="WildType04-1" class="data contour WT_Model-normalized-positions"/>
		<path d="M 333.18983 327.84438 C332.59794,327.07512 331.67365,326.65688 330.7282,326.34162 C329.91782,326.07139 329.09188,325.87681 328.25439,325.78599 C326.57939,325.60435 324.85813,325.83775 323.16989,325.81786 C322.18509,325.80626 321.21153,325.70848 320.25209,325.80435 C319.42972,325.88653 318.61772,326.11098 317.90832,326.49742 C317.19892,326.88386 316.59212,327.43229 316.06826,328.02947 C315.80633,328.32806 315.56513,328.63884 315.41542,329.02026 C315.31562,329.27455 315.25648,329.56022 315.35187,329.79356 C315.39957,329.91023 315.4859,330.01381 315.58487,330.09893 C315.98075,330.43939 316.57881,330.48439 317.13307,330.47489 C317.54877,330.46777 317.93983,330.42998 318.33613,330.37816 C319.12874,330.27452 319.94232,330.11474 320.72513,329.84585 C321.50794,329.57696 322.25997,329.19895 323.06166,328.98803 C323.86335,328.77711 324.7147,328.73327 325.5365,328.84868 C327.31705,329.09875 328.95886,330.09647 330.73372,330.41269 C331.1433,330.48567 331.55997,330.52235 331.97855,330.50012 C332.39714,330.47789 332.81765,330.39676 333.12633,330.13065 C333.43501,329.86454 333.63187,329.41346 333.63399,328.99084 C333.63612,328.56822 333.4435,328.17406 333.18983,327.84438 z" id="WildType04-2" class="data contour WT_Model-normalized-positions"/>
		<path d="M 354.02449 247.76913 C353.01427,246.30062 351.30086,245.56294 349.53092,245.16104 C347.89713,244.79005 346.21517,244.70515 344.52534,244.69551 C343.5396,244.68988 342.55118,244.70985 341.62336,244.96122 C340.82809,245.17667 340.07733,245.56212 339.46106,246.08344 C338.84478,246.60476 338.36298,247.26195 337.93182,247.93129 C337.71625,248.26596 337.51333,248.60367 337.3994,248.99555 C337.28548,249.38742 337.26056,249.83347 337.4775,250.12321 C337.62213,250.31637 337.87426,250.44007 338.14588,250.49411 C338.4175,250.54815 338.70861,250.53253 338.98491,250.48759 C339.39937,250.42017 339.7805,250.28676 340.1501,250.12584 C340.8893,249.80401 341.58238,249.37216 342.30991,248.98008 C343.03743,248.588 343.7994,248.23569 344.60668,248.06902 C345.41396,247.90235 346.26656,247.92132 347.06063,248.1226 C348.78113,248.55871 350.22692,249.85069 351.91421,250.24706 C352.30358,250.33853 352.70581,250.3823 353.12834,250.35903 C353.55086,250.33576 353.99368,250.24544 354.2505,249.98503 C354.50732,249.72462 354.57815,249.29413 354.51572,248.88998 C354.45329,248.48582 354.25761,248.10802 354.02449,247.76913 z" id="WildType04-3" class="data contour WT_Model-normalized-positions"/>
		<path d="M 309.255 200.54196 C308.85085,199.64401 308.15202,198.80292 307.29754,198.20444 C306.56512,197.69146 305.71835,197.35672 304.84942,197.11241 C303.11156,196.62378 301.28505,196.49683 299.46502,196.56666 C298.40334,196.60739 297.34386,196.71508 296.35139,197.03964 C295.5007,197.31784 294.69924,197.75537 294.03713,198.33636 C293.37503,198.91736 292.85229,199.64181 292.43963,200.39221 C292.2333,200.76741 292.0545,201.1491 291.94841,201.58051 C291.87768,201.86813 291.83927,202.17784 291.89849,202.45583 C291.9281,202.59482 291.98213,202.72588 292.05927,202.83503 C292.36783,203.27163 293.04629,203.35762 293.61355,203.22709 C294.03899,203.1292 294.40188,202.90951 294.74905,202.66349 C295.44338,202.17146 296.07482,201.57409 296.80078,201.11202 C298.2527,200.18788 300.08271,199.8049 301.7755,200.07278 C303.60935,200.36298 305.28215,201.41702 306.85728,202.11119 C307.22078,202.27138 307.57907,202.41241 307.98714,202.55652 C308.39522,202.70064 308.85308,202.84784 309.16603,202.70359 C309.37467,202.60742 309.51889,202.3817 309.56608,202.12535 C309.58967,201.99718 309.58899,201.86134 309.57857,201.72653 C309.54729,201.32208 309.42821,200.9268 309.255,200.54196 z" id="WildType04-4" class="data contour WT_Model-normalized-positions"/>
		<path d="M 451.72249 305.01461 C451.13507,304.36566 450.3946,303.99009 449.60234,303.69841 C448.92326,303.4484 448.20613,303.26002 447.47999,303.17193 C446.02772,302.99574 444.53942,303.22072 443.08125,303.20572 C442.23064,303.19698 441.39029,303.10657 440.56796,303.18758 C439.86311,303.25702 439.1715,303.45241 438.5661,303.78542 C438.2634,303.95193 437.98225,304.15285 437.72287,304.37213 C437.46348,304.59142 437.22587,304.82908 437.00911,305.09262 C436.79235,305.35615 436.59646,305.64555 436.51037,305.97466 C436.45298,306.19406 436.44439,306.43111 436.54055,306.62377 C436.58862,306.7201 436.66289,306.80533 436.74276,306.88144 C437.3019,307.41419 438.13615,307.49982 438.92679,307.4353 C439.60448,307.38 440.25014,307.21439 440.90116,306.9638 C441.55218,306.71322 442.20855,306.37767 442.90651,306.22885 C443.60446,306.08003 444.344,306.11796 445.06146,306.24714 C446.61597,306.52705 448.06689,307.2354 449.64908,307.33388 C450.37932,307.37933 451.13753,307.29487 451.6919,306.8323 C451.96908,306.60102 452.19529,306.27521 452.19658,305.94814 C452.19788,305.62107 451.97424,305.29273 451.72249,305.01461" id="WildType05-1" class="data contour WT_Model-normalized-positions"/>
		<path d="M 378.876 291.66031 C377.90435,290.27888 376.22576,289.37557 374.50234,289.13758 C372.91149,288.9179 371.28243,289.26511 369.66888,289.24287 C368.72764,289.22989 367.79168,289.0912 366.86842,289.17314 C366.07705,289.24338 365.29501,289.47571 364.6552,289.91169 C364.01538,290.34767 363.51779,290.9873 363.11177,291.63148 C362.90876,291.95357 362.72864,292.2768 362.61461,292.65293 C362.50058,293.02906 362.45263,293.45809 362.62074,293.77326 C362.73282,293.98337 362.94091,294.14287 363.18278,294.23507 C363.42464,294.32727 363.70027,294.35216 363.96662,294.35071 C364.36615,294.34853 364.7448,294.28707 365.12486,294.21529 C365.88497,294.07171 366.65072,293.88682 367.3928,293.609 C368.13488,293.33118 368.85328,292.96043 369.62177,292.7457 C370.39027,292.53097 371.20885,292.47227 371.99775,292.56906 C373.70702,292.77877 375.27689,293.71845 376.92876,294.10183 C377.30996,294.1903 377.69553,294.24915 378.09967,294.24618 C378.36911,294.24421 378.64679,294.21476 378.86799,294.10083 C378.97859,294.04387 379.07507,293.96579 379.15132,293.86922 C379.38006,293.57954 379.42673,293.12358 379.35677,292.72347 C379.28681,292.32336 379.10023,291.97911 378.876,291.66031" id="WildType05-2" class="data contour WT_Model-normalized-positions"/>
		<path d="M 334.04334 181.63162 C333.6945,180.66026 332.92783,179.94864 332.06066,179.38107 C331.31737,178.89458 330.50026,178.51392 329.65814,178.25096 C327.97389,177.72503 326.18963,177.66991 324.43249,177.87464 C322.52892,178.09644 320.65718,178.62322 319.17496,179.72613 C318.49085,180.23516 317.88973,180.86692 317.53992,181.62634 C317.36501,182.00604 317.25294,182.41767 317.22385,182.85734 C317.19476,183.29701 317.24865,183.76474 317.51684,184.0214 C317.69564,184.1925 317.96968,184.2698 318.25002,184.26057 C318.53035,184.25133 318.81697,184.15556 319.08701,184.04823 C319.49207,183.88723 319.85983,183.70022 320.22303,183.49781 C320.94944,183.09299 321.65766,182.62659 322.39215,182.18965 C323.12665,181.7527 323.88742,181.34521 324.71157,181.16801 C325.53572,180.99081 326.42324,181.04391 327.23766,181.2403 C329.00223,181.66582 330.42359,182.76403 331.77618,183.77194 C332.08832,184.00453 332.39679,184.23232 332.77025,184.32163 C333.1437,184.41095 333.58214,184.36179 333.85432,184.11443 C334.1265,183.86707 334.23243,183.4215 334.24901,182.96672 C334.2656,182.51193 334.19284,182.04792 334.04334,181.63162 z" id="WildType05-3" class="data contour WT_Model-normalized-positions"/>
		<path d="M 249.49067 425.50029 C248.65928,424.82969 247.60691,424.58506 246.55332,424.40952 C245.65024,424.25906 244.74626,424.15934 243.83341,424.14026 C242.0077,424.10208 240.1465,424.38639 238.3213,424.31258 C237.25661,424.26952 236.20417,424.1046 235.15331,424.09111 C234.25257,424.07954 233.353,424.17922 232.51252,424.42405 C231.67203,424.66888 230.89063,425.05886 230.2522,425.66377 C229.93299,425.96622 229.64951,426.32241 229.52189,426.74243 C229.43681,427.02245 229.421,427.33084 229.57354,427.56314 C229.64981,427.67929 229.76817,427.77641 229.89265,427.85981 C230.76402,428.44357 231.93527,428.35438 233.02297,428.20651 C233.95529,428.07977 234.82624,427.90991 235.72216,427.69981 C236.61809,427.48971 237.539,427.23937 238.46458,427.12828 C239.39016,427.01719 240.32041,427.04535 241.23099,427.19408 C243.20393,427.51634 245.08454,428.40461 247.05049,428.4154 C247.50417,428.41789 247.9624,428.37365 248.40796,428.29322 C248.85352,428.21278 249.28642,428.09616 249.62939,427.79442 C249.97236,427.49268 250.2254,427.00582 250.19406,426.57957 C250.16271,426.15333 249.84699,425.78769 249.49067,425.50029 z" id="WildType05-4" class="data contour WT_Model-normalized-positions"/>
		<path d="M 133.72348 34.258959 C133.60183,32.914221 133.27326,31.472345 132.36371,30.492751 C131.97391,30.072925 131.47739,29.738008 130.98053,29.435455 C130.48367,29.132901 129.98647,28.86271 129.46637,28.602488 C128.94626,28.342265 128.40326,28.09201 127.83989,28.01076 C127.27652,27.92951 126.69277,28.017265 126.11431,28.084153 C124.95739,28.217928 123.8216,28.268233 122.6812,28.381238 C121.35073,28.513076 120.01398,28.730255 118.78601,29.215525 C117.73347,29.63147 116.76084,30.24438 115.93382,31.016755 C115.1068,31.789129 114.42538,32.720968 114.11362,33.779237 C113.95774,34.308371 113.89427,34.869113 113.91552,35.438082 C113.92968,35.817394 113.9815,36.200362 114.15209,36.537719 C114.23738,36.706397 114.35237,36.863673 114.49538,36.953528 C114.7814,37.133238 115.17954,37.043266 115.5087,36.858821 C115.83787,36.674375 116.09806,36.395455 116.35694,36.124005 C116.74526,35.716831 117.13061,35.326463 117.51522,34.931377 C118.28443,34.141204 119.05064,33.332157 119.92087,32.637956 C120.79109,31.943756 121.76534,31.364401 122.81032,31.025741 C123.85531,30.68708 124.97102,30.589113 126.05427,30.726218 C127.31805,30.886175 128.53762,31.36609 129.42545,32.187142 C130.18644,32.890901 130.7037,33.84529 131.1226,34.750697 C131.33205,35.2034 131.51691,35.643858 131.75238,36.102678 C131.90936,36.408559 132.08883,36.7226 132.35562,36.934664 C132.48902,37.040696 132.64425,37.121234 132.78545,37.131258 C133.20907,37.16133 133.50647,36.556777 133.64811,35.975263 C133.78975,35.393749 133.77562,34.835275 133.72348,34.258959" id="WildType05-5" class="data contour WT_Model-normalized-positions"/>
		<path d="M 151.5813 180.17622 C150.91272,179.08741 149.96552,178.26183 148.92537,177.57539 C148.03381,176.98701 147.07398,176.50087 146.07077,176.13332 C144.06437,175.39823 141.88452,175.13754 139.76503,175.32019 C137.46893,175.51807 135.24367,176.23627 133.49661,177.67318 C132.69028,178.33638 131.98581,179.15267 131.55555,180.06532 C131.34043,180.52164 131.19385,181.00205 131.19365,181.51936 C131.19346,182.03667 131.33964,182.59087 131.68011,182.97414 C131.7936,183.1019 131.92868,183.21066 132.08121,183.2677 C132.23374,183.32475 132.40373,183.33007 132.56342,183.29273 C132.88281,183.21807 133.16105,182.97277 133.41246,182.72206 C133.78957,182.34598 134.10634,181.9577 134.45525,181.58801 C135.15307,180.84864 135.97948,180.18367 136.89636,179.69953 C138.73013,178.73126 140.9258,178.48637 142.96299,178.81826 C144.15135,179.01186 145.28579,179.40173 146.30846,179.98324 C147.18504,180.48167 147.97951,181.12089 148.73676,181.6949 C149.11538,181.9819 149.48469,182.2526 149.93829,182.48803 C150.39189,182.72345 150.92977,182.9236 151.34386,182.78185 C151.75795,182.6401 152.04824,182.15645 152.07571,181.65714 C152.10318,181.15782 151.86783,180.64285 151.5813,180.17622" id="WildType05-6" class="data contour WT_Model-normalized-positions"/>
		<path d="M 558.29147 233.45587 C557.65349,232.2748 556.37169,231.66582 555.03648,231.29173 C553.80397,230.94642 552.52594,230.80124 551.24599,230.89098 C550.49935,230.94333 549.75206,231.0756 549.08083,231.35968 C548.50549,231.60317 547.98604,231.95819 547.52817,232.35141 C547.0703,232.74464 546.674,233.17607 546.30622,233.64696 C546.12233,233.8824 545.94557,234.1277 545.83033,234.40578 C545.7151,234.68387 545.6614,234.99474 545.76803,235.23605 C545.83911,235.39693 545.98145,235.52689 546.15849,235.61293 C546.33552,235.69898 546.54725,235.74111 546.75498,235.75984 C547.06658,235.78795 547.36919,235.76343 547.66966,235.72937 C548.2706,235.66126 548.86298,235.55502 549.4463,235.35981 C550.02962,235.16461 550.60389,234.88044 551.21026,234.74642 C551.81664,234.6124 552.45514,234.62854 553.06582,234.75907 C553.77829,234.91136 554.45292,235.21936 555.13155,235.47233 C555.71324,235.68917 556.29787,235.86558 556.9124,235.90522 C557.21967,235.92504 557.53441,235.91066 557.81337,235.79162 C558.09233,235.67257 558.33552,235.44886 558.47142,235.18856 C558.74323,234.66795 558.58592,234.00098 558.29147,233.45587" id="WildType06-01" class="data contour WT_Model-normalized-positions"/>
		<path d="M 518.63838 271.35405 C518.25468,270.72443 517.56401,270.30899 516.85444,270.00943 C516.24624,269.75266 515.62414,269.58104 514.97902,269.4437 C513.68878,269.16904 512.30645,269.03154 510.98994,269.17623 C509.56373,269.33298 508.21476,269.82091 506.98646,270.40755 C506.41955,270.67831 505.87835,270.97009 505.40897,271.41829 C505.17428,271.64239 504.95756,271.9056 504.93916,272.18339 C504.92076,272.46118 505.1007,272.75355 505.32786,272.98433 C505.85791,273.52282 506.64509,273.72595 507.4033,273.73368 C508.0532,273.74031 508.68182,273.60337 509.30433,273.375 C509.92683,273.14663 510.54321,272.82681 511.19582,272.68335 C511.84843,272.53989 512.53726,272.57278 513.19004,272.72185 C513.95161,272.89576 514.6641,273.2278 515.38084,273.52215 C515.99518,273.77445 516.61265,273.99907 517.26239,274.05263 C517.58726,274.07941 517.9202,274.06342 518.19531,273.91691 C518.47043,273.77039 518.68772,273.49335 518.81536,273.19248 C519.07063,272.59075 518.96727,271.89372 518.63838,271.35405 z" id="WildType06-02" class="data contour WT_Model-normalized-positions"/>
		<path d="M 430.12681 302.21259 C429.52272,301.60063 428.70686,301.31811 427.89806,301.02134 C427.20481,300.76697 426.51676,300.50212 425.80474,300.31005 C424.38069,299.92592 422.86079,299.8329 421.37944,299.9409 C419.77464,300.0579 418.21509,300.41082 416.80484,300.99736 C416.15395,301.26807 415.53486,301.58855 415.08994,302.12585 C414.64502,302.66314 414.37427,303.41727 414.63533,304.08177 C414.80937,304.52478 415.21977,304.92795 415.68739,305.02609 C416.03811,305.0997 416.42102,305.00173 416.79147,304.89685 C417.53237,304.68707 418.22343,304.44963 418.93637,304.22398 C420.36225,303.7727 421.87561,303.36863 423.37817,303.41176 C424.25467,303.43692 425.12749,303.61425 425.96277,303.85114 C426.67872,304.05418 427.36709,304.30098 428.08433,304.45679 C428.44294,304.53469 428.80878,304.58984 429.16753,304.54196 C429.52629,304.49407 429.87796,304.34315 430.15315,304.08905 C430.42834,303.83496 430.62703,303.47769 430.61637,303.13766 C430.60572,302.79764 430.38571,302.47486 430.12681,302.21259" id="WildType06-03" class="data contour WT_Model-normalized-positions"/>
		<path d="M 442.81861 299.25614 C442.29403,298.57288 441.58292,298.1131 440.80114,297.74311 C440.13105,297.42598 439.40903,297.17482 438.68116,297.03468 C437.2254,296.75439 435.74618,296.91818 434.26577,297.02523 C432.662,297.1412 431.05685,297.19059 429.76655,297.95402 C429.17103,298.30637 428.64258,298.81083 428.21653,299.32905 C428.00351,299.58817 427.81608,299.85072 427.69218,300.17361 C427.56827,300.4965 427.50789,300.87972 427.64652,301.15349 C427.83135,301.51853 428.36998,301.68899 428.86333,301.74482 C429.23334,301.78668 429.57789,301.76406 429.92781,301.73352 C430.62765,301.67244 431.34901,301.57969 432.05125,301.39107 C432.75349,301.20245 433.43661,300.91797 434.15318,300.76073 C434.86975,300.60349 435.61976,300.5735 436.35193,300.6598 C437.93829,300.8468 439.44087,301.57973 441.01142,301.74053 C441.37386,301.77764 441.73992,301.78428 442.10921,301.72284 C442.47851,301.6614 442.85104,301.53189 443.07081,301.26953 C443.29057,301.00716 443.35756,300.61195 443.29578,300.2474 C443.23399,299.88285 443.04343,299.54897 442.81861,299.25614 z" id="WildType06-04" class="data contour WT_Model-normalized-positions"/>
		<path d="M 402.14497 212.70696 C401.63861,211.95241 401.04994,211.24002 400.32951,210.67711 C399.71199,210.19461 398.99767,209.82193 398.23311,209.61825 C397.46856,209.41458 396.65376,209.37992 395.85389,209.37527 C395.05402,209.37062 394.26906,209.39598 393.47479,209.46153 C391.75386,209.60356 389.98918,209.93429 388.62141,210.92467 C387.99013,211.38177 387.44339,211.97939 387.16638,212.68 C387.02788,213.0303 386.9568,213.40635 386.91336,213.80774 C386.86991,214.20914 386.8541,214.63589 387.0419,214.93971 C387.1671,215.14226 387.38279,215.29018 387.62349,215.32059 C387.86419,215.351 388.12989,215.26391 388.379,215.16507 C388.75266,215.01682 389.08897,214.84213 389.42496,214.66079 C390.09695,214.29811 390.76765,213.90883 391.471,213.56454 C392.17436,213.22025 392.91035,212.92095 393.68097,212.8171 C394.4516,212.71326 395.25685,212.80486 396.00652,213.01845 C397.63081,213.48122 398.99416,214.51661 400.48288,215.06723 C400.82643,215.1943 401.17665,215.29555 401.56003,215.27745 C401.9434,215.25935 402.35992,215.1219 402.5664,214.83786 C402.77288,214.55383 402.76932,214.1232 402.66659,213.74233 C402.56387,213.36146 402.36198,213.03033 402.14497,212.70696" id="WildType06-05" class="data contour WT_Model-normalized-positions"/>
		<path d="M 388.42398 210.80796 C387.99092,209.91589 387.28407,209.2547 386.50316,208.66508 C385.83382,208.15969 385.11007,207.70688 384.32626,207.462 C383.54245,207.21713 382.69857,207.18018 381.86619,207.19827 C381.0338,207.21635 380.2129,207.28947 379.40109,207.40627 C377.64217,207.65933 375.92589,208.11744 374.44834,209.01038 C373.7664,209.4225 373.13531,209.92725 372.67892,210.5719 C372.45072,210.89422 372.2662,211.25152 372.25525,211.62812 C372.24429,212.00472 372.40691,212.40062 372.6761,212.67491 C373.03503,213.04062 373.58344,213.19013 374.10492,213.163 C374.49603,213.14265 374.87199,213.02294 375.23681,212.88765 C375.96643,212.61707 376.65145,212.28418 377.33439,211.89684 C378.01732,211.5095 378.69819,211.06771 379.44002,210.85466 C380.18185,210.64161 380.98466,210.65731 381.73447,210.80912 C383.35905,211.13806 384.73483,212.10603 386.15084,212.7068 C386.47761,212.84544 386.80652,212.96453 387.15661,213.00811 C387.5067,213.0517 387.87797,213.01979 388.16876,212.84581 C388.45955,212.67183 388.66987,212.35578 388.70737,211.98539 C388.74487,211.615 388.60957,211.19028 388.42398,210.80796" id="WildType06-06" class="data contour WT_Model-normalized-positions"/>
		<path d="M 380.39121 280.79047 C379.92064,279.99105 379.21434,279.33447 378.39015,278.9061 C377.68371,278.53893 376.89066,278.33942 376.09352,278.2146 C374.49924,277.96497 372.88861,278.0141 371.2687,278.01302 C370.32376,278.01239 369.37565,277.99467 368.47852,278.20678 C367.70956,278.38859 366.97804,278.73924 366.3627,279.21384 C365.74737,279.68844 365.24821,280.28699 364.80933,280.90571 C364.5899,281.21507 364.38553,281.52947 364.24831,281.89747 C364.11108,282.26546 364.04101,282.68705 364.20074,282.99716 C364.30722,283.2039 364.51584,283.3611 364.75969,283.45134 C365.00353,283.54157 365.28259,283.56484 365.55064,283.56362 C365.95272,283.5618 366.33002,283.50491 366.71076,283.43694 C367.47223,283.301 368.24748,283.12079 368.99104,282.84301 C369.7346,282.56523 370.44648,282.18988 371.21625,281.94919 C371.98602,281.70851 372.81368,281.60249 373.59949,281.74712 C374.51628,281.91585 375.37611,282.42573 376.24639,282.80999 C376.99234,283.13935 377.74596,283.37642 378.54407,283.5324 C378.94313,283.6104 379.35331,283.66812 379.76447,283.61032 C380.17564,283.55253 380.58778,283.37921 380.77881,283.07003 C380.96983,282.76085 380.93974,282.31581 380.8455,281.90886 C380.75126,281.50192 380.59288,281.13307 380.39121,280.79047 z" id="WildType06-07" class="data contour WT_Model-normalized-positions"/>
		<path d="M 316.86504 338.44173 C316.19029,337.69744 315.33105,337.1319 314.39178,336.82428 C313.5867,336.56061 312.72282,336.48644 311.86244,336.39243 C310.14169,336.20439 308.43497,335.93697 306.72457,335.91841 C304.87164,335.8983 303.01439,336.17025 301.46525,337.02654 C300.75027,337.42175 300.10092,337.94143 299.53744,338.52142 C299.2557,338.81142 298.99542,339.11649 298.89219,339.49667 C298.82337,339.75012 298.82434,340.03694 298.93994,340.29321 C298.99773,340.42134 299.08418,340.54184 299.18,340.65052 C299.8507,341.4113 300.98022,341.59336 301.99525,341.45774 C302.86527,341.3415 303.65117,340.99187 304.45338,340.61879 C305.2556,340.24571 306.07412,339.84918 306.93114,339.67476 C307.78816,339.50034 308.68367,339.54803 309.53066,339.76181 C311.36581,340.22499 312.97316,341.46784 314.84366,341.53452 C315.70697,341.56529 316.62634,341.34551 317.16992,340.6985 C317.35111,340.48283 317.49055,340.21969 317.52244,339.94124 C317.53838,339.80202 317.52744,339.65896 317.49796,339.52236 C317.40951,339.11254 317.15422,338.76072 316.86504,338.44173" id="WildType06-08" class="data contour WT_Model-normalized-positions"/>
		<path d="M 222.18015 304.83737 C221.58173,303.87597 220.55192,303.26337 219.48777,302.79138 C218.57565,302.38681 217.63829,302.08555 216.68348,301.91428 C214.77384,301.57176 212.79435,301.74924 210.85757,301.75471 C209.72779,301.7579 208.61253,301.70256 207.53023,301.90755 C206.60254,302.08326 205.69906,302.45022 204.9042,302.93672 C204.10934,303.42321 203.4231,304.02923 202.85758,304.79889 C202.57483,305.18372 202.32225,305.60946 202.28478,306.05617 C202.24731,306.50288 202.42495,306.97055 202.75281,307.2534 C203.18995,307.63052 203.89415,307.67906 204.52009,307.57284 C204.98954,307.49318 205.41498,307.32648 205.84203,307.15669 C206.69613,306.81711 207.5567,306.46518 208.43414,306.13133 C209.31159,305.79748 210.2059,305.4817 211.13536,305.34191 C212.06481,305.20211 213.02942,305.23829 213.95534,305.38151 C215.96151,305.69182 217.78611,306.50459 219.57195,307.23751 C219.98406,307.40665 220.39412,307.57153 220.82234,307.60902 C221.25057,307.6465 221.69696,307.55657 222.02811,307.30077 C222.35926,307.04496 222.57517,306.62328 222.5945,306.17439 C222.61384,305.7255 222.43661,305.2494 222.18015,304.83737" id="WildType06-09" class="data contour WT_Model-normalized-positions"/>
		<path d="M 68.18496 368.72816 C67.241259,367.79012 65.990238,367.41151 64.719473,367.14202 C63.630245,366.91102 62.52651,366.7602 61.415686,366.62765 C59.194039,366.36254 56.944036,366.17051 54.711174,365.97942 C53.408671,365.86795 52.112,365.75679 50.842538,365.92716 C49.754428,366.07319 48.686309,366.42605 47.779859,366.99081 C46.873409,367.55557 46.12863,368.33222 45.45828,369.17484 C45.123105,369.59615 44.806537,370.03396 44.672441,370.55235 C44.583044,370.89795 44.574745,371.27936 44.701307,371.58445 C44.764588,371.73699 44.861584,371.87045 44.981512,371.97382 C45.461224,372.38727 46.307853,372.31919 46.985965,372.06995 C47.494549,371.88302 47.908342,371.59419 48.337562,371.30715 C49.196003,370.73308 50.11615,370.1662 51.105481,369.76075 C53.084143,368.94985 55.339541,368.78468 57.493597,369.11822 C59.827157,369.47955 62.04178,370.42617 64.327188,371.07092 C65.381991,371.3685 66.451874,371.60177 67.51933,371.19496 C68.053058,370.99155 68.586179,370.62812 68.72857,370.15652 C68.823498,369.84213 68.744767,369.47966 68.547133,369.16494 C68.448317,369.00758 68.319774,368.86216 68.18496,368.72816" id="WildType06-10" class="data contour WT_Model-normalized-positions"/>
		<path d="M 50.678802 345.37038 C49.852668,344.32781 48.838938,343.46288 47.660717,342.91928 C46.650814,342.45334 45.520061,342.22348 44.395414,342.20076 C43.270766,342.17803 42.152224,342.36245 41.03299,342.44052 C39.913756,342.51858 38.79383,342.4903 37.67021,342.42219 C36.35932,342.34274 35.043402,342.20908 33.753502,342.35389 C32.647873,342.478 31.561359,342.8067 30.562764,343.2877 C29.564169,343.7687 28.653493,344.40201 27.920193,345.29117 C27.553543,345.73575 27.231237,346.24429 27.255018,346.74952 C27.278798,347.25476 27.648666,347.75669 28.11754,348.01076 C28.742705,348.34952 29.543881,348.24763 30.241496,348.01364 C30.764707,347.83815 31.229664,347.58835 31.710812,347.34938 C32.673106,346.87144 33.700158,346.43681 34.760439,346.13129 C35.820721,345.82577 36.914231,345.64937 38.017035,345.46859 C39.11984,345.28781 40.231939,345.10265 41.355457,345.11469 C42.666228,345.12873 43.992542,345.41117 45.148962,346.00135 C46.14018,346.50722 47.006578,347.23918 47.929136,347.90555 C48.390415,348.23874 48.865734,348.55553 49.417053,348.67886 C49.968371,348.80218 50.59569,348.73204 50.984191,348.38267 C51.372693,348.0333 51.522377,347.4047 51.437419,346.85067 C51.352461,346.29665 51.03286,345.8172 50.678802,345.37038" id="WildType06-11" class="data contour WT_Model-normalized-positions"/>
	</g>
	<g id="legend" class="layer">
		<g id="WT_Model-normalized-positions row">
			<rect height="10.8" id="WT_Model-normalized-positions" class="data contour WT_Model-normalized-positions" width="50" x="550" y="13.6"/>
			<text font-size="12" class="legend label" text-anchor="start" x="603" y="22">WT_Model-normalized-positions</text>
		</g>
	</g>
	<g id="scale bar" class="layer">
		<g id="scalebar lines">
			<line id="scalebar" class="scalebar" x1="30" x2="65.308383" y1="480" y2="480"/>
			<line id="scalebar left tic" class="scalebar tic" x1="30" x2="30" y1="478.5" y2="481.5"/>
			<line id="scalebar right tic" class="scalebar tic" x1="65.308383" x2="65.308383" y1="478.5" y2="481.5"/>
		</g>
		<text font-size="12" class="scalebar label" text-anchor="middle" x="47.654192" y="493.5">5 m</text>
	</g>
</svg>
